<svg xmlns="http://www.w3.org/2000/svg" viewBox="0 0 720 900">
  <rect width="720" height="900" fill="#c9cbc5"/>
  <rect x="0" y="0" width="720" height="470" fill="#b8bbb4"/>
  <rect x="70" y="100" width="580" height="300" rx="8" fill="#e5e5df"/>
  <path d="M70 100 360 32l290 68" fill="none" stroke="#1f251c" stroke-width="18" stroke-linecap="round"/>
  <rect x="112" y="174" width="130" height="92" rx="4" fill="#1b2118"/>
  <rect x="294" y="174" width="130" height="92" rx="4" fill="#26351e"/>
  <rect x="476" y="174" width="130" height="92" rx="4" fill="#1b2118"/>
  <circle cx="360" cy="360" r="170" fill="#48652c"/>
  <circle cx="360" cy="360" r="160" fill="none" stroke="#21b4b2" stroke-width="20"/>
  <circle cx="360" cy="360" r="140" fill="none" stroke="#73d75f" stroke-width="20" stroke-dasharray="330 500"/>
  <text x="360" y="272" text-anchor="middle" fill="#fff" font-family="Arial, sans-serif" font-size="22" font-weight="900">RENCA</text>
  <text x="360" y="305" text-anchor="middle" fill="#fff" font-family="Arial, sans-serif" font-size="22" font-weight="900">LA HACIENDA</text>
  <text x="360" y="338" text-anchor="middle" fill="#fff" font-family="Arial, sans-serif" font-size="20" font-weight="900">CLIENTES FELICES</text>
  <text x="360" y="410" text-anchor="middle" fill="#fff" font-family="Arial, sans-serif" font-size="40" font-weight="900">FELICIDADES</text>
  <text x="360" y="458" text-anchor="middle" fill="#fff" font-family="Arial, sans-serif" font-size="21" font-weight="900">VENTA FINALIZADA</text>
  <text x="360" y="490" text-anchor="middle" fill="#fff" font-family="Arial, sans-serif" font-size="21" font-weight="900">CON EXITO</text>
  <rect y="470" width="720" height="430" fill="#10120f" opacity=".88"/>
  <circle cx="218" cy="670" r="54" fill="#ecece8"/>
  <circle cx="360" cy="654" r="64" fill="#d8d8d2"/>
  <circle cx="506" cy="676" r="54" fill="#ecece8"/>
  <rect x="150" y="724" width="420" height="176" rx="70" fill="#2d332b"/>
</svg>
